<svg xmlns="http://www.w3.org/2000/svg" width="123" height="36" fill="none"><path fill="#fff" fill-rule="evenodd" d="M18.504 33.46C33.7 24.478 31.96 15.235 31.748 5.15a3.172 3.172 0 0 0-.926-2.165 3.018 3.018 0 0 0-2.139-.885H5.26a3.02 3.02 0 0 0-2.134.888 3.172 3.172 0 0 0-.923 2.162C2.03 15.235.252 24.478 15.447 33.46a3.023 3.023 0 0 0 3.057 0z"/><path fill="#0b2132" d="M56.377 13.9l-6.073 14.503h-3.418L40.82 13.9h3.434l4.4 10.756L53.19 13.9h3.188zm2.22-2.975a2.018 2.018 0 0 1-.45-.665 2.06 2.06 0 0 1 .45-2.25 2.117 2.117 0 0 1 1.516-.58 2.164 2.164 0 0 1 1.508.554 1.79 1.79 0 0 1 .452.616 1.84 1.84 0 0 1 .155.754 2.09 2.09 0 0 1-.144.814 2.054 2.054 0 0 1-1.97 1.303 2.115 2.115 0 0 1-1.517-.546zm-.156 2.975h3.28v14.503h-3.28V13.9zm18.71 11.79v2.714h-12.22V26.26l7.77-9.647h-7.606V13.9H76.94v2.176l-7.794 9.613h8.007zm25.153-10.37c1.04 1.058 1.566 2.655 1.566 4.772v8.3h-3.32v-7.873a4.349 4.349 0 0 0-.82-2.873 2.982 2.982 0 0 0-1.075-.75 2.917 2.917 0 0 0-1.285-.208 3.367 3.367 0 0 0-1.456.261c-.462.195-.876.5-1.215.865a4.665 4.665 0 0 0-1.009 3.218v7.36h-3.278v-7.873a4.346 4.346 0 0 0-.82-2.873 2.95 2.95 0 0 0-1.07-.751 2.885 2.885 0 0 0-1.282-.207c-.5-.025-1 .062-1.466.253a3.489 3.489 0 0 0-1.23.856 4.76 4.76 0 0 0-.992 3.235v7.36h-3.278V13.9h3.155v1.84a5.14 5.14 0 0 1 1.984-1.487 6.607 6.607 0 0 1 2.655-.52c.973-.02 1.938.19 2.82.613a4.599 4.599 0 0 1 1.95 1.806 5.919 5.919 0 0 1 2.18-1.756c.96-.433 2-.65 3.05-.638a5.604 5.604 0 0 1 2.274.337 5.708 5.708 0 0 1 1.963 1.226zm8.425 12.327A6.938 6.938 0 0 1 108.043 25a7.626 7.626 0 0 1-.967-3.882 7.553 7.553 0 0 1 .967-3.832 6.909 6.909 0 0 1 2.688-2.638 8.446 8.446 0 0 1 3.885-.95 8.44 8.44 0 0 1 3.885.95 6.902 6.902 0 0 1 2.688 2.638 7.543 7.543 0 0 1 .967 3.832 7.627 7.627 0 0 1-.967 3.849 6.93 6.93 0 0 1-2.688 2.647 8.44 8.44 0 0 1-3.885.949 8.446 8.446 0 0 1-3.885-.95v.034zm6.893-3.168a5.12 5.12 0 0 0 0-6.571 4.28 4.28 0 0 0-6.032 0 5.12 5.12 0 0 0 0 6.571 4.28 4.28 0 0 0 6.032 0z"/><path fill="url(#A)" fill-rule="evenodd" d="M19.47 24.957a2.25 2.25 0 0 1-.288 1.114 2.175 2.175 0 0 1-.798.812 2.107 2.107 0 0 1-2.17-.03 2.179 2.179 0 0 1-.777-.832 2.246 2.246 0 0 1 .068-2.224c.203-.33.488-.6.826-.78.23-.11.472-.188.72-.227h.304a2.05 2.05 0 0 1 .813.17c.258.1.492.272.688.476s.352.445.457.7.16.55.156.837v-.025zM9.833 7.26c-.425 0-.84.13-1.193.37a2.19 2.19 0 0 0-.79.988 2.253 2.253 0 0 0-.123 1.272 2.21 2.21 0 0 0 .588 1.127 2.13 2.13 0 0 0 1.1.603 2.1 2.1 0 0 0 1.24-.125 2.16 2.16 0 0 0 .963-.811 2.242 2.242 0 0 0-.267-2.78 2.12 2.12 0 0 0-1.518-.645zm12.433 4.202a2.11 2.11 0 0 0-1.195.367 2.19 2.19 0 0 0-.795.986 2.253 2.253 0 0 0-.125 1.273c.082.427.286.82.586 1.13s.682.52 1.1.605a2.1 2.1 0 0 0 1.242-.124 2.16 2.16 0 0 0 .965-.81 2.25 2.25 0 0 0 .362-1.225 2.25 2.25 0 0 0-.15-.845 2.208 2.208 0 0 0-.456-.721 2.148 2.148 0 0 0-.69-.489 2.103 2.103 0 0 0-.818-.18l-.025.034zM18.61 35.528a3.425 3.425 0 0 1-3.467 0C-2.06 25.318-.002 14.848.154 3.47A3.58 3.58 0 0 1 1.19 1.01 3.407 3.407 0 0 1 3.612 0h26.53c.905 0 1.774.363 2.42 1.012a3.59 3.59 0 0 1 1.039 2.458c.197 11.378 2.213 21.848-15 32.058zm7.245-21.898a3.736 3.736 0 0 0-.457-1.804 3.623 3.623 0 0 0-1.263-1.34 3.502 3.502 0 0 0-3.513-.113 3.608 3.608 0 0 0-1.341 1.257 3.742 3.742 0 0 0-.21 3.597 3.64 3.64 0 0 0 1.186 1.41L18.29 21.42a3.285 3.285 0 0 0-.869-.126h-.114c-.325.001-.648.05-.96.143l-4.3-9.084a3.668 3.668 0 0 0 1.305-2.132 3.737 3.737 0 0 0-.349-2.492 3.596 3.596 0 0 0-1.838-1.67 3.483 3.483 0 0 0-2.454-.055A3.585 3.585 0 0 0 6.794 7.59a3.733 3.733 0 0 0-.455 2.473 3.68 3.68 0 0 0 1.213 2.19 3.513 3.513 0 0 0 3.215.747l4.32 9.118a3.663 3.663 0 0 0-1.193 1.847 3.744 3.744 0 0 0 .068 2.215 3.64 3.64 0 0 0 1.303 1.767 3.505 3.505 0 0 0 2.059.672 3.51 3.51 0 0 0 2.06-.672 3.647 3.647 0 0 0 1.302-1.767c.245-.713.27-1.487.068-2.215a3.663 3.663 0 0 0-1.193-1.847l2.008-4.89a3.488 3.488 0 0 0 2.09-.204 3.56 3.56 0 0 0 1.158-.797 3.65 3.65 0 0 0 .772-1.191c.178-.446.27-.923.267-1.404z"/><defs><linearGradient id="A" x1="-21.967" x2="44.535" y1="-29.923" y2="38.5" gradientUnits="userSpaceOnUse"><stop offset=".15" stop-color="#00ab98"/><stop offset=".74" stop-color="#48bfb0"/></linearGradient></defs></svg>